<svg width="1200" height="640" viewBox="0 0 1200 640" fill="none" xmlns="http://www.w3.org/2000/svg">
  <defs>
    <linearGradient id="bg" x1="72" y1="62" x2="1128" y2="596" gradientUnits="userSpaceOnUse">
      <stop stop-color="#FBFDFF"/>
      <stop offset="1" stop-color="#F3F8FF"/>
    </linearGradient>
    <filter id="shadow" x="0" y="0" width="1200" height="640" filterUnits="userSpaceOnUse" color-interpolation-filters="sRGB">
      <feDropShadow dx="0" dy="18" stdDeviation="18" flood-color="#20314E" flood-opacity="0.08"/>
    </filter>
  </defs>

  <rect width="1200" height="640" rx="32" fill="url(#bg)"/>
  <rect x="74" y="70" width="188" height="36" rx="18" fill="#F2EDFF"/>
  <text x="104" y="94" fill="#6C4FD7" font-family="Inter, Pretendard, sans-serif" font-size="18" font-weight="700">TWO CHAT MODES</text>

  <rect x="92" y="128" width="440" height="438" rx="32" fill="white" filter="url(#shadow)"/>
  <rect x="668" y="128" width="440" height="438" rx="32" fill="white" filter="url(#shadow)"/>

  <rect x="136" y="162" width="132" height="40" rx="20" fill="#EAF1FF"/>
  <text x="180" y="188" fill="#2453E6" font-family="Inter, Pretendard, sans-serif" font-size="22" font-weight="700">Q&amp;A</text>

  <circle cx="160" cy="246" r="18" fill="#2453E6"/>
  <text x="152" y="253" fill="white" font-family="Inter, Pretendard, sans-serif" font-size="16" font-weight="700">1</text>
  <rect x="194" y="220" width="294" height="54" rx="18" fill="#F7FAFF"/>
  <text x="220" y="255" fill="#162238" font-family="Inter, Pretendard, sans-serif" font-size="24" font-weight="700">Search relevant papers</text>

  <circle cx="160" cy="332" r="18" fill="#2453E6"/>
  <text x="152" y="339" fill="white" font-family="Inter, Pretendard, sans-serif" font-size="16" font-weight="700">2</text>
  <rect x="194" y="306" width="294" height="54" rx="18" fill="#F7FAFF"/>
  <text x="220" y="341" fill="#162238" font-family="Inter, Pretendard, sans-serif" font-size="24" font-weight="700">Read the evidence</text>

  <circle cx="160" cy="418" r="18" fill="#2453E6"/>
  <text x="152" y="425" fill="white" font-family="Inter, Pretendard, sans-serif" font-size="16" font-weight="700">3</text>
  <rect x="194" y="392" width="294" height="54" rx="18" fill="#F7FAFF"/>
  <text x="220" y="427" fill="#162238" font-family="Inter, Pretendard, sans-serif" font-size="24" font-weight="700">Answer in words</text>

  <rect x="136" y="486" width="352" height="58" rx="20" fill="#EAF1FF"/>
  <text x="160" y="522" fill="#2453E6" font-family="Inter, Pretendard, sans-serif" font-size="22" font-weight="700">Short path, fast response</text>

  <rect x="712" y="162" width="166" height="40" rx="20" fill="#FFF1DF"/>
  <text x="744" y="188" fill="#D1871D" font-family="Inter, Pretendard, sans-serif" font-size="22" font-weight="700">Table mode</text>

  <circle cx="736" cy="236" r="18" fill="#D1871D"/>
  <text x="728" y="243" fill="white" font-family="Inter, Pretendard, sans-serif" font-size="16" font-weight="700">1</text>
  <rect x="770" y="210" width="294" height="50" rx="18" fill="#FFF9F1"/>
  <text x="796" y="243" fill="#162238" font-family="Inter, Pretendard, sans-serif" font-size="22" font-weight="700">Plan what to build</text>

  <circle cx="736" cy="304" r="18" fill="#D1871D"/>
  <text x="728" y="311" fill="white" font-family="Inter, Pretendard, sans-serif" font-size="16" font-weight="700">2</text>
  <rect x="770" y="278" width="294" height="50" rx="18" fill="#FFF9F1"/>
  <text x="796" y="311" fill="#162238" font-family="Inter, Pretendard, sans-serif" font-size="22" font-weight="700">Search many papers</text>

  <circle cx="736" cy="372" r="18" fill="#D1871D"/>
  <text x="728" y="379" fill="white" font-family="Inter, Pretendard, sans-serif" font-size="16" font-weight="700">3</text>
  <rect x="770" y="346" width="294" height="50" rx="18" fill="#FFF9F1"/>
  <text x="796" y="379" fill="#162238" font-family="Inter, Pretendard, sans-serif" font-size="22" font-weight="700">Extract useful values</text>

  <circle cx="736" cy="440" r="18" fill="#D1871D"/>
  <text x="728" y="447" fill="white" font-family="Inter, Pretendard, sans-serif" font-size="16" font-weight="700">4</text>
  <rect x="770" y="414" width="294" height="50" rx="18" fill="#FFF9F1"/>
  <text x="796" y="447" fill="#162238" font-family="Inter, Pretendard, sans-serif" font-size="22" font-weight="700">Make and verify table</text>

  <rect x="712" y="486" width="352" height="58" rx="20" fill="#FFF1DF"/>
  <text x="736" y="522" fill="#D1871D" font-family="Inter, Pretendard, sans-serif" font-size="22" font-weight="700">Longer path, structured result</text>
</svg>
